<svg version="1.1" id="Layer_1" xmlns="http://www.w3.org/2000/svg" xmlns:xlink="http://www.w3.org/1999/xlink" x="0px" y="0px"
	 width="100%" viewBox="0 0 500 500" enable-background="new 0 0 500 500" xml:space="preserve">
<path fill="#000000" opacity="1.000000" stroke="none" 
	d="
M247.000000,501.000000 
	C164.666687,501.000000 82.833374,501.000000 1.000044,501.000000 
	C1.000029,334.333405 1.000029,167.666779 1.000015,1.000133 
	C167.666565,1.000089 334.333130,1.000089 500.999756,1.000044 
	C500.999847,167.666519 500.999847,334.333038 500.999939,500.999786 
	C416.500000,501.000000 332.000000,501.000000 247.000000,501.000000 
M185.996033,168.997498 
	C185.996033,168.997498 185.995346,168.922226 185.460358,169.066818 
	C185.281784,169.375809 185.103210,169.684784 184.995377,169.994247 
	C184.995377,169.994247 184.991211,169.923645 184.466858,170.080185 
	C184.292969,170.386383 184.119080,170.692581 184.000061,171.003845 
	C184.000061,171.003845 183.979538,170.952713 183.351913,171.200912 
	C182.875580,172.128311 182.399246,173.055695 181.989548,173.995010 
	C181.989548,173.995010 181.975922,173.928696 181.321762,174.200485 
	C174.483475,184.106766 172.076248,195.105560 174.190536,206.841965 
	C174.952515,211.071671 177.318207,215.012436 178.980118,219.014114 
	C178.980118,219.014114 178.906281,219.033249 178.993134,219.760147 
	C181.315765,222.862885 183.638397,225.965622 185.989548,229.006302 
	C185.989548,229.006302 185.921326,229.009171 186.077545,229.535828 
	C186.382935,229.716812 186.688309,229.897781 186.995728,230.010925 
	C186.995728,230.010925 186.932190,230.034790 187.173782,230.664124 
	C189.106155,232.137863 191.038528,233.611588 192.990128,235.016037 
	C192.990128,235.016037 192.920807,235.035141 193.184814,235.685745 
	C196.529709,237.891251 199.874588,240.096771 202.772522,242.787628 
	C201.243759,244.312469 199.823059,245.967361 198.169174,247.341629 
	C184.715714,258.520386 171.273926,269.714661 157.701797,280.748260 
	C153.529526,284.140167 152.506226,288.064880 154.075409,293.779297 
	C153.897797,296.202911 153.394714,298.654694 153.601318,301.045105 
	C154.331406,309.492615 161.311508,311.076538 167.579224,312.884552 
	C201.774139,322.748474 236.022125,332.428467 270.256561,342.155182 
	C290.005859,347.766388 288.966339,349.070648 304.622894,333.947235 
	C314.506073,324.400604 324.751495,315.229919 334.690613,305.739990 
	C342.032837,298.729645 351.098816,292.461090 347.766876,279.114288 
	C347.728699,277.391022 347.690521,275.667786 347.778839,273.387634 
	C347.499939,272.924225 347.221039,272.460785 346.869781,271.296600 
	C343.681091,263.850006 336.012482,266.164185 330.502686,264.396118 
	C322.511566,261.831787 313.827911,261.484619 305.487396,259.934784 
	C295.624817,258.102081 285.783203,256.131165 275.988617,253.966248 
	C267.855133,252.168457 259.802948,250.002869 251.963760,247.390305 
	C252.591583,246.532684 253.219406,245.675064 254.715500,244.715805 
	C257.788361,244.467224 260.857025,244.125092 263.934845,243.987442 
	C273.615875,243.554459 283.300385,243.198303 293.763733,242.943848 
	C301.637085,240.818130 309.368591,238.416580 314.989960,231.995590 
	C314.989960,231.995590 314.993378,232.044373 315.519409,231.904327 
	C315.700348,231.602600 315.881287,231.300888 315.996826,230.995590 
	C315.996826,230.995590 315.998932,231.061035 316.526794,230.914322 
	C316.706329,230.609726 316.885864,230.305115 316.998413,229.998093 
	C316.998413,229.998093 317.001282,230.065109 317.526947,229.913956 
	C317.704163,229.609116 317.881378,229.304291 318.000824,228.995255 
	C318.000824,228.995255 318.018158,229.050491 318.617126,228.831100 
	C319.338837,227.840576 320.060547,226.850052 320.939362,225.500488 
	C320.939362,225.500488 320.998718,225.113113 321.612610,224.843170 
	C322.420410,223.562042 323.228180,222.280899 323.993439,220.995209 
	C323.993439,220.995209 324.003326,221.036835 324.621887,220.744461 
	C325.092194,219.494736 325.562500,218.245026 325.993347,216.992020 
	C325.993347,216.992020 325.998810,217.031265 326.696228,216.684204 
	C327.659393,212.753510 328.968597,208.869690 329.508575,204.881683 
	C330.431488,198.065536 330.538055,191.227310 326.926392,184.472610 
	C326.926392,184.472610 326.771637,184.052597 326.926605,183.307617 
	C325.623688,180.850937 324.320801,178.394272 323.002747,175.998581 
	C323.002747,175.998581 323.064911,175.989258 322.981506,175.332184 
	C322.329834,174.530212 321.678162,173.728256 321.009521,172.992447 
	C321.009521,172.992447 321.075623,172.975250 320.981659,172.275558 
	C312.980042,161.542236 302.396729,155.655136 288.333466,155.053070 
	C287.930450,155.032944 287.527435,155.012817 286.644196,154.242401 
	C261.457123,154.508881 236.254150,154.347870 211.091980,155.283722 
	C202.768021,155.593323 194.885132,159.411118 188.994308,165.989456 
	C188.994308,165.989456 188.993820,165.921082 188.447098,166.074265 
	C188.251892,166.388046 188.056686,166.701828 187.436691,167.136978 
	C187.163925,167.309647 187.024033,167.557343 186.491287,168.071854 
	C186.301117,168.380219 186.110931,168.688568 185.996033,168.997498 
z"/>
<path fill="#4EDADE" opacity="1.000000" stroke="none" 
	d="
M326.771637,184.052597 
	C326.771637,184.052597 326.926392,184.472610 326.958191,185.132568 
	C327.336304,191.518280 328.051575,197.252914 327.914001,202.967010 
	C327.800781,207.667740 326.675537,212.344101 325.998810,217.031265 
	C325.998810,217.031265 325.993347,216.992020 325.674500,217.098694 
	C324.904877,218.482529 324.454102,219.759689 324.003326,221.036835 
	C324.003326,221.036835 323.993439,220.995209 323.661255,221.054535 
	C322.552277,222.446945 321.775482,223.780029 320.998718,225.113113 
	C320.998718,225.113113 320.939362,225.500488 320.515900,225.739304 
	C319.401001,227.002243 318.709564,228.026367 318.018127,229.050476 
	C318.018158,229.050491 318.000824,228.995255 317.803711,229.120743 
	C317.404846,229.519196 317.203064,229.792145 317.001282,230.065094 
	C317.001282,230.065109 316.998413,229.998093 316.805023,230.121887 
	C316.407379,230.517456 316.203156,230.789246 315.998932,231.061035 
	C315.998932,231.061035 315.996826,230.995590 315.803253,231.117783 
	C315.404236,231.508102 315.198792,231.776230 314.993378,232.044373 
	C314.993378,232.044373 314.989960,231.995590 314.642822,232.001144 
	C306.859222,235.329681 299.422791,238.652649 291.518555,241.973633 
	C280.267334,241.981476 269.481140,241.873520 258.703430,242.126709 
	C257.064545,242.165207 255.464966,243.878693 253.847214,244.817444 
	C253.219406,245.675064 252.591583,246.532684 251.521149,247.811859 
	C247.398941,251.337021 243.719345,254.440643 239.692871,257.696777 
	C232.942352,261.147766 232.385056,261.002747 228.994110,254.717987 
	C228.838531,253.010986 228.638885,251.707809 228.339905,250.427841 
	C226.612274,243.031403 226.597214,243.155533 218.911163,242.708084 
	C214.639771,242.459442 210.396805,241.722565 206.018845,240.857605 
	C201.571381,238.684708 197.246094,236.859924 192.920807,235.035141 
	C192.920807,235.035141 192.990128,235.016037 192.934418,234.698624 
	C190.896530,232.932404 188.914352,231.483597 186.932190,230.034790 
	C186.932190,230.034790 186.995728,230.010925 186.871246,229.816101 
	C186.471619,229.417236 186.196472,229.213196 185.921326,229.009171 
	C185.921326,229.009171 185.989548,229.006302 185.985474,228.669098 
	C183.623016,225.232346 181.264648,222.132797 178.906281,219.033249 
	C178.906281,219.033249 178.980118,219.014114 178.985748,218.644882 
	C178.582199,216.690018 178.314301,215.051208 177.740814,213.527420 
	C174.136444,203.950500 174.791031,194.396729 177.889267,184.886124 
	C179.095673,181.182892 180.604721,177.578247 181.975922,173.928696 
	C181.975922,173.928696 181.989548,173.995010 182.288589,173.905212 
	C183.051605,172.861191 183.515564,171.906952 183.979538,170.952713 
	C183.979538,170.952713 184.000061,171.003845 184.199463,170.878540 
	C184.596329,170.476715 184.793777,170.200180 184.991211,169.923645 
	C184.991211,169.923645 184.995377,169.994247 185.188232,169.870041 
	C185.585831,169.471298 185.790588,169.196762 185.995346,168.922226 
	C185.995346,168.922226 185.996033,168.997498 186.190948,168.864731 
	C186.596252,168.448013 186.806641,168.164047 187.017014,167.880081 
	C187.024033,167.557343 187.163925,167.309647 187.888214,166.950348 
	C188.557770,166.482834 188.775803,166.201965 188.993820,165.921082 
	C188.993820,165.921082 188.994308,165.989456 189.268967,166.031250 
	C191.748947,165.107864 193.971542,164.179947 196.155396,163.168472 
	C199.130280,161.790634 201.944778,159.674744 205.059921,159.070251 
	C212.326340,157.660248 219.718887,156.245880 227.082458,156.119293 
	C245.697983,155.799255 264.325653,156.216370 282.948578,156.235916 
	C284.340088,156.237381 285.732452,155.426132 287.124420,154.992691 
	C287.527435,155.012817 287.930450,155.032944 288.738373,155.396133 
	C289.532776,156.010391 289.894165,156.460403 290.315887,156.526657 
	C301.002167,158.205841 310.098541,162.807678 317.400513,170.903702 
	C318.293457,171.893753 319.834778,172.298996 321.075623,172.975250 
	C321.075623,172.975250 321.009521,172.992447 321.023987,173.307617 
	C321.713959,174.411606 322.389435,175.200424 323.064911,175.989258 
	C323.064911,175.989258 323.002747,175.998581 323.001831,176.364670 
	C324.257812,179.171371 325.514709,181.611984 326.771637,184.052597 
M221.406540,191.749268 
	C216.287567,194.758240 214.710831,199.157867 217.506531,203.165680 
	C219.887787,206.579361 223.258881,207.741302 227.102615,206.011246 
	C230.666626,204.407089 232.278763,201.409164 231.527267,197.462418 
	C230.718857,193.216949 227.593460,191.291946 221.406540,191.749268 
M287.773987,200.941925 
	C287.982544,194.104614 283.979980,190.016113 278.489563,191.527222 
	C274.901672,192.514725 272.779968,194.881454 272.635681,198.656418 
	C272.493683,202.372055 274.172485,205.133804 277.788513,206.251724 
	C282.299591,207.646347 285.526428,205.870941 287.773987,200.941925 
M254.631180,206.316437 
	C258.085754,204.924225 260.358246,202.311264 259.685944,198.673508 
	C259.256989,196.352509 257.561340,193.115189 255.696182,192.490479 
	C253.153107,191.638702 249.015198,191.891663 247.213623,193.510284 
	C245.408646,195.131973 244.610901,199.251068 245.210114,201.851959 
	C246.124313,205.820007 249.752777,207.248199 254.631180,206.316437 
z"/>
<path fill="#19089C" opacity="1.000000" stroke="none" 
	d="
M206.141022,241.205750 
	C210.396805,241.722565 214.639771,242.459442 218.911163,242.708084 
	C226.597214,243.155533 226.612274,243.031403 228.339905,250.427841 
	C228.638885,251.707809 228.838531,253.010986 228.593994,254.674911 
	C223.535400,254.126083 218.994965,252.992081 214.385101,252.386047 
	C212.421829,252.127960 209.767029,252.293182 208.356750,253.425095 
	C196.282410,263.116211 184.349365,272.988220 172.539810,283.001587 
	C168.895645,286.091461 169.906677,290.259674 174.331375,291.915924 
	C175.729767,292.439362 177.194717,292.786835 178.633072,293.201508 
	C213.011093,303.112427 247.401169,312.981903 281.750458,322.991425 
	C285.231445,324.005829 287.692963,323.373352 290.273651,320.900696 
	C302.898041,308.804657 315.718689,296.912598 328.271790,284.744019 
	C329.814056,283.248962 331.281616,280.194885 330.763641,278.469971 
	C330.237457,276.717896 327.369171,274.936646 325.253815,274.504974 
	C296.877045,268.714600 268.452454,263.158508 240.039734,257.544250 
	C243.719345,254.440643 247.398941,251.337021 251.396637,248.116791 
	C259.802948,250.002869 267.855133,252.168457 275.988617,253.966248 
	C285.783203,256.131165 295.624817,258.102081 305.487396,259.934784 
	C313.827911,261.484619 322.511566,261.831787 330.502686,264.396118 
	C336.012482,266.164185 343.681091,263.850006 346.925537,271.913330 
	C347.204956,273.001556 347.428650,273.473053 347.652344,273.944519 
	C347.690521,275.667786 347.728699,277.391022 347.488953,279.757751 
	C346.273529,281.949951 345.596100,283.757385 344.355438,285.004608 
	C337.351379,292.045593 330.324799,299.071960 323.088989,305.872559 
	C314.997009,313.477814 306.350098,320.517761 298.563232,328.413696 
	C293.262634,333.788544 286.057190,336.582581 278.963409,334.391724 
	C267.287506,330.785797 255.601044,327.210388 243.876831,323.765717 
	C228.910614,319.368500 213.907486,315.096497 198.910736,310.803802 
	C188.250748,307.752472 177.582138,304.730652 166.903275,301.746155 
	C161.645508,300.276733 155.980225,299.462982 154.246475,292.951752 
	C152.506226,288.064880 153.529526,284.140167 157.701797,280.748260 
	C171.273926,269.714661 184.715714,258.520386 198.169174,247.341629 
	C199.823059,245.967361 201.243759,244.312469 203.296936,242.440262 
	C204.594559,241.797195 205.367798,241.501480 206.141022,241.205750 
z"/>
<path fill="#2B2876" opacity="1.000000" stroke="none" 
	d="
M154.160950,293.365540 
	C155.980225,299.462982 161.645508,300.276733 166.903275,301.746155 
	C177.582138,304.730652 188.250748,307.752472 198.910736,310.803802 
	C213.907486,315.096497 228.910614,319.368500 243.876831,323.765717 
	C255.601044,327.210388 267.287506,330.785797 278.963409,334.391724 
	C286.057190,336.582581 293.262634,333.788544 298.563232,328.413696 
	C306.350098,320.517761 314.997009,313.477814 323.088989,305.872559 
	C330.324799,299.071960 337.351379,292.045593 344.355438,285.004608 
	C345.596100,283.757385 346.273529,281.949951 347.457733,280.187622 
	C351.098816,292.461090 342.032837,298.729645 334.690613,305.739990 
	C324.751495,315.229919 314.506073,324.400604 304.622894,333.947235 
	C288.966339,349.070648 290.005859,347.766388 270.256561,342.155182 
	C236.022125,332.428467 201.774139,322.748474 167.579224,312.884552 
	C161.311508,311.076538 154.331406,309.492615 153.601318,301.045105 
	C153.394714,298.654694 153.897797,296.202911 154.160950,293.365540 
z"/>
<path fill="#70C8CD" opacity="1.000000" stroke="none" 
	d="
M286.884308,154.617554 
	C285.732452,155.426132 284.340088,156.237381 282.948578,156.235916 
	C264.325653,156.216370 245.697983,155.799255 227.082458,156.119293 
	C219.718887,156.245880 212.326340,157.660248 205.059921,159.070251 
	C201.944778,159.674744 199.130280,161.790634 196.155396,163.168472 
	C193.971542,164.179947 191.748947,165.107864 189.239197,166.014435 
	C194.885132,159.411118 202.768021,155.593323 211.091980,155.283722 
	C236.254150,154.347870 261.457123,154.508881 286.884308,154.617554 
z"/>
<path fill="#70C8CD" opacity="1.000000" stroke="none" 
	d="
M181.648834,174.064590 
	C180.604721,177.578247 179.095673,181.182892 177.889267,184.886124 
	C174.791031,194.396729 174.136444,203.950500 177.740814,213.527420 
	C178.314301,215.051208 178.582199,216.690018 178.971710,218.680359 
	C177.318207,215.012436 174.952515,211.071671 174.190536,206.841965 
	C172.076248,195.105560 174.483475,184.106766 181.648834,174.064590 
z"/>
<path fill="#70C8CD" opacity="1.000000" stroke="none" 
	d="
M321.028625,172.625397 
	C319.834778,172.298996 318.293457,171.893753 317.400513,170.903702 
	C310.098541,162.807678 301.002167,158.205841 290.315887,156.526657 
	C289.894165,156.460403 289.532776,156.010391 289.032471,155.467712 
	C302.396729,155.655136 312.980042,161.542236 321.028625,172.625397 
z"/>
<path fill="#78CBD5" opacity="1.000000" stroke="none" 
	d="
M254.281357,244.766632 
	C255.464966,243.878693 257.064545,242.165207 258.703430,242.126709 
	C269.481140,241.873520 280.267334,241.981476 291.705444,242.087616 
	C292.599274,242.374420 292.807098,242.577362 292.983521,242.812408 
	C283.300385,243.198303 273.615875,243.554459 263.934845,243.987442 
	C260.857025,244.125092 257.788361,244.467224 254.281357,244.766632 
z"/>
<path fill="#70C8CD" opacity="1.000000" stroke="none" 
	d="
M326.347534,216.857727 
	C326.675537,212.344101 327.800781,207.667740 327.914001,202.967010 
	C328.051575,197.252914 327.336304,191.518280 326.996002,185.353165 
	C330.538055,191.227310 330.431488,198.065536 329.508575,204.881683 
	C328.968597,208.869690 327.659393,212.753510 326.347534,216.857727 
z"/>
<path fill="#70C8CD" opacity="1.000000" stroke="none" 
	d="
M293.373627,242.878143 
	C292.807098,242.577362 292.599274,242.374420 292.173218,242.089615 
	C299.422791,238.652649 306.859222,235.329681 314.666840,232.005707 
	C309.368591,238.416580 301.637085,240.818130 293.373627,242.878143 
z"/>
<path fill="#70C8CD" opacity="1.000000" stroke="none" 
	d="
M206.018860,240.857620 
	C205.367798,241.501480 204.594559,241.797195 203.520416,242.197586 
	C199.874588,240.096771 196.529709,237.891251 193.052811,235.360443 
	C197.246094,236.859924 201.571381,238.684708 206.018860,240.857620 
z"/>
<path fill="#70C8CD" opacity="1.000000" stroke="none" 
	d="
M178.949707,219.396698 
	C181.264648,222.132797 183.623016,225.232346 185.971222,228.700104 
	C183.638397,225.965622 181.315765,222.862885 178.949707,219.396698 
z"/>
<path fill="#70C8CD" opacity="1.000000" stroke="none" 
	d="
M326.849121,183.680115 
	C325.514709,181.611984 324.257812,179.171371 323.009399,176.334167 
	C324.320801,178.394272 325.623688,180.850937 326.849121,183.680115 
z"/>
<path fill="#70C8CD" opacity="1.000000" stroke="none" 
	d="
M187.052979,230.349457 
	C188.914352,231.483597 190.896530,232.932404 192.924805,234.733261 
	C191.038528,233.611588 189.106155,232.137863 187.052979,230.349457 
z"/>
<path fill="#70C8CD" opacity="1.000000" stroke="none" 
	d="
M321.305664,224.978149 
	C321.775482,223.780029 322.552277,222.446945 323.682495,221.056808 
	C323.228180,222.280899 322.420410,223.562042 321.305664,224.978149 
z"/>
<path fill="#70C8CD" opacity="1.000000" stroke="none" 
	d="
M318.317627,228.940796 
	C318.709564,228.026367 319.401001,227.002243 320.437347,225.918823 
	C320.060547,226.850052 319.338837,227.840576 318.317627,228.940796 
z"/>
<path fill="#70C8CD" opacity="1.000000" stroke="none" 
	d="
M324.312622,220.890656 
	C324.454102,219.759689 324.904877,218.482529 325.694214,217.100342 
	C325.562500,218.245026 325.092194,219.494736 324.312622,220.890656 
z"/>
<path fill="#70C8CD" opacity="1.000000" stroke="none" 
	d="
M183.665726,171.076813 
	C183.515564,171.906952 183.051605,172.861191 182.255280,173.899261 
	C182.399246,173.055695 182.875580,172.128311 183.665726,171.076813 
z"/>
<path fill="#70C8CD" opacity="1.000000" stroke="none" 
	d="
M323.023193,175.660706 
	C322.389435,175.200424 321.713959,174.411606 321.032471,173.274536 
	C321.678162,173.728256 322.329834,174.530212 323.023193,175.660706 
z"/>
<path fill="#2B2876" opacity="1.000000" stroke="none" 
	d="
M347.715576,273.666077 
	C347.428650,273.473053 347.204956,273.001556 346.961731,272.263733 
	C347.221039,272.460785 347.499939,272.924225 347.715576,273.666077 
z"/>
<path fill="#70C8CD" opacity="1.000000" stroke="none" 
	d="
M185.999435,229.272491 
	C186.196472,229.213196 186.471619,229.417236 186.870239,229.850006 
	C186.688309,229.897781 186.382935,229.716812 185.999435,229.272491 
z"/>
<path fill="#70C8CD" opacity="1.000000" stroke="none" 
	d="
M317.264099,229.989532 
	C317.203064,229.792145 317.404846,229.519196 317.832611,229.122849 
	C317.881378,229.304291 317.704163,229.609116 317.264099,229.989532 
z"/>
<path fill="#70C8CD" opacity="1.000000" stroke="none" 
	d="
M316.262878,230.987671 
	C316.203156,230.789246 316.407379,230.517456 316.838531,230.123077 
	C316.885864,230.305115 316.706329,230.609726 316.262878,230.987671 
z"/>
<path fill="#70C8CD" opacity="1.000000" stroke="none" 
	d="
M315.256409,231.974335 
	C315.198792,231.776230 315.404236,231.508102 315.835938,231.119568 
	C315.881287,231.300888 315.700348,231.602600 315.256409,231.974335 
z"/>
<path fill="#70C8CD" opacity="1.000000" stroke="none" 
	d="
M184.729034,170.001923 
	C184.793777,170.200180 184.596329,170.476715 184.172043,170.876007 
	C184.119080,170.692581 184.292969,170.386383 184.729034,170.001923 
z"/>
<path fill="#70C8CD" opacity="1.000000" stroke="none" 
	d="
M185.727844,168.994522 
	C185.790588,169.196762 185.585831,169.471298 185.152863,169.869812 
	C185.103210,169.684784 185.281784,169.375809 185.727844,168.994522 
z"/>
<path fill="#70C8CD" opacity="1.000000" stroke="none" 
	d="
M186.754150,167.975967 
	C186.806641,168.164047 186.596252,168.448013 186.153320,168.864441 
	C186.110931,168.688568 186.301117,168.380219 186.754150,167.975967 
z"/>
<path fill="#70C8CD" opacity="1.000000" stroke="none" 
	d="
M188.720459,165.997681 
	C188.775803,166.201965 188.557770,166.482834 188.100616,166.889648 
	C188.056686,166.701828 188.251892,166.388046 188.720459,165.997681 
z"/>
<path fill="#E3EBFA" opacity="1.000000" stroke="none" 
	d="
M239.692871,257.696777 
	C268.452454,263.158508 296.877045,268.714600 325.253815,274.504974 
	C327.369171,274.936646 330.237457,276.717896 330.763641,278.469971 
	C331.281616,280.194885 329.814056,283.248962 328.271790,284.744019 
	C315.718689,296.912598 302.898041,308.804657 290.273651,320.900696 
	C287.692963,323.373352 285.231445,324.005829 281.750458,322.991425 
	C247.401169,312.981903 213.011093,303.112427 178.633072,293.201508 
	C177.194717,292.786835 175.729767,292.439362 174.331375,291.915924 
	C169.906677,290.259674 168.895645,286.091461 172.539810,283.001587 
	C184.349365,272.988220 196.282410,263.116211 208.356750,253.425095 
	C209.767029,252.293182 212.421829,252.127960 214.385101,252.386047 
	C218.994965,252.992081 223.535400,254.126083 228.504059,255.089462 
	C232.385056,261.002747 232.942352,261.147766 239.692871,257.696777 
M265.424255,278.274414 
	C266.256897,277.839020 267.089508,277.403625 267.922150,276.968231 
	C267.774323,276.459808 267.626526,275.951385 267.478729,275.442993 
	C243.968750,278.428741 220.458771,281.414490 196.948792,284.400269 
	C197.043839,285.181854 197.138870,285.963409 197.233917,286.744995 
	C219.700638,283.958527 242.167343,281.172058 265.424255,278.274414 
M238.813278,290.087250 
	C237.871948,290.564758 236.930634,291.042267 235.989304,291.519806 
	C236.155945,292.022888 236.322586,292.525970 236.489212,293.029053 
	C248.710770,291.708649 260.932343,290.388245 273.153900,289.067810 
	C273.069000,288.245483 272.984100,287.423157 272.899200,286.600830 
	C261.815308,287.733337 250.731445,288.865845 238.813278,290.087250 
z"/>
<path fill="#051113" opacity="1.000000" stroke="none" 
	d="
M221.768646,191.620804 
	C227.593460,191.291946 230.718857,193.216949 231.527267,197.462418 
	C232.278763,201.409164 230.666626,204.407089 227.102615,206.011246 
	C223.258881,207.741302 219.887787,206.579361 217.506531,203.165680 
	C214.710831,199.157867 216.287567,194.758240 221.768646,191.620804 
z"/>
<path fill="#051113" opacity="1.000000" stroke="none" 
	d="
M287.649933,201.315094 
	C285.526428,205.870941 282.299591,207.646347 277.788513,206.251724 
	C274.172485,205.133804 272.493683,202.372055 272.635681,198.656418 
	C272.779968,194.881454 274.901672,192.514725 278.489563,191.527222 
	C283.979980,190.016113 287.982544,194.104614 287.649933,201.315094 
z"/>
<path fill="#051113" opacity="1.000000" stroke="none" 
	d="
M254.263412,206.434921 
	C249.752777,207.248199 246.124313,205.820007 245.210114,201.851959 
	C244.610901,199.251068 245.408646,195.131973 247.213623,193.510284 
	C249.015198,191.891663 253.153107,191.638702 255.696182,192.490479 
	C257.561340,193.115189 259.256989,196.352509 259.685944,198.673508 
	C260.358246,202.311264 258.085754,204.924225 254.263412,206.434921 
z"/>
<path fill="#262D34" opacity="1.000000" stroke="none" 
	d="
M265.029175,278.330017 
	C242.167343,281.172058 219.700638,283.958527 197.233917,286.744995 
	C197.138870,285.963409 197.043839,285.181854 196.948792,284.400269 
	C220.458771,281.414490 243.968750,278.428741 267.478729,275.442993 
	C267.626526,275.951385 267.774323,276.459808 267.922150,276.968231 
	C267.089508,277.403625 266.256897,277.839020 265.029175,278.330017 
z"/>
<path fill="#32373D" opacity="1.000000" stroke="none" 
	d="
M239.230438,290.042786 
	C250.731445,288.865845 261.815308,287.733337 272.899200,286.600830 
	C272.984100,287.423157 273.069000,288.245483 273.153900,289.067810 
	C260.932343,290.388245 248.710770,291.708649 236.489212,293.029053 
	C236.322586,292.525970 236.155945,292.022888 235.989304,291.519806 
	C236.930634,291.042267 237.871948,290.564758 239.230438,290.042786 
z"/>
</svg>